<svg width="160" height="49" viewBox="0 0 160 49" fill="none" xmlns="http://www.w3.org/2000/svg">
<g clip-path="url(#clip0_0_343)">
<g clip-path="url(#clip1_0_343)">
<path d="M15.9169 13.8162H12.7226V31.0763H15.9169V13.8162Z" fill="white"/>
<path d="M76.6048 18.731C75.4226 18.731 74.3525 18.9924 73.3936 19.5153C72.4348 20.0382 71.6945 20.7962 71.1714 21.7888C70.6483 22.7817 70.3867 23.8086 70.3867 24.8695C70.3867 26.2563 70.6483 27.4329 71.1714 28.3992C71.6945 29.3654 72.4573 30.0986 73.4619 30.5988C74.4658 31.099 75.5209 31.3491 76.628 31.3491C78.4166 31.3491 79.8999 30.7486 81.0779 29.5472C82.2567 28.3462 82.846 26.8324 82.846 25.0059C82.846 23.1948 82.2621 21.6962 81.095 20.5101C79.9279 19.324 78.4316 18.731 76.6048 18.731ZM78.7136 27.543C78.1489 28.1796 77.4502 28.4979 76.6164 28.4979C75.7825 28.4979 75.0818 28.1796 74.5136 27.543C73.9448 26.9064 73.6607 26.2375 73.6607 25.04C73.6607 23.8427 73.9448 23.1736 74.5136 22.537C75.0818 21.9004 75.7825 21.5821 76.6164 21.5821C77.4502 21.5821 78.1489 21.9004 78.7136 22.537C79.2784 23.1736 79.5605 23.835 79.5605 25.0173C79.5605 26.2299 79.2784 26.9064 78.7136 27.543Z" fill="white"/>
<path d="M22.7239 18.731C21.5416 18.731 20.4711 18.9924 19.5125 19.5153C18.5536 20.0382 17.813 20.7962 17.2901 21.7888C16.7672 22.7817 16.5058 23.8086 16.5058 24.8695C16.5058 26.2563 16.7672 27.4329 17.2901 28.3992C17.813 29.3654 18.5764 30.0986 19.5807 30.5988C20.5848 31.099 21.64 31.3491 22.7465 31.3491C24.5351 31.3491 26.0185 30.7486 27.197 29.5472C28.3754 28.3462 28.9647 26.8324 28.9647 25.0059C28.9647 23.1948 28.381 21.6962 27.214 20.5101C26.0469 19.324 24.5502 18.731 22.7239 18.731ZM24.8325 27.543C24.2679 28.1796 23.5688 28.4979 22.7352 28.4979C21.9014 28.4979 21.2006 28.1796 20.6322 27.543C20.0638 26.9064 19.7796 26.2375 19.7796 25.04C19.7796 23.8427 20.0638 23.1736 20.6322 22.537C21.2006 21.9004 21.9014 21.5821 22.7352 21.5821C23.5688 21.5821 24.2679 21.9004 24.8325 22.537C25.397 23.1736 25.6794 23.835 25.6794 25.0173C25.6794 26.2299 25.397 26.9064 24.8325 27.543Z" fill="white"/>
<path d="M35.5847 21.6667C37.1452 21.6667 37.9988 22.755 38.3121 23.6456L41.2315 22.7716C40.7697 21.3038 39.5493 18.731 35.437 18.731C31.5834 18.731 29.3239 21.744 29.3239 25.04C29.3239 28.3361 31.5834 31.3491 35.437 31.3491C39.5493 31.3491 40.7697 28.7763 41.2315 27.3084L38.4113 26.3848C38.098 27.2754 37.1452 28.4134 35.5847 28.4134C34.0243 28.4134 32.573 27.1586 32.573 25.04C32.573 22.9214 34.0243 21.6667 35.5847 21.6667Z" fill="white"/>
<path d="M102.983 19.0039H98.8019L94.6156 23.5529V13.8162H91.3717V31.0763H94.6156V27.856L95.9657 26.3927L99.1898 31.0763H103.229L98.2235 24.0913L102.983 19.0039Z" fill="white"/>
<path d="M67.6749 19.0039L65.5587 26.767L62.9959 19.0039H61.238H59.5793L57.0165 26.767L54.8011 19.0039H51.3722H49.0642L44.8779 23.5529V13.8162H41.634V31.0763H44.8779V27.856L46.2275 26.3927L49.4518 31.0763H53.4914L48.4858 24.0913L51.8449 20.5008L55.1842 31.0763H58.5139L61.238 22.8162L63.9621 31.0763H67.2918L71.1038 19.0039H67.6749Z" fill="white"/>
<path d="M86.6171 20.7205V19.0039H83.5016V31.0764H86.7455V27.3478C86.7455 25.2942 86.2729 21.6681 90.7919 22.2454V18.972C88.235 18.7311 87.1252 19.9096 86.6171 20.7205Z" fill="white"/>
<path d="M107.482 23.5976C106.503 23.4 105.437 23.3448 105.437 22.3003C105.437 21.3877 106.492 21.1348 107.163 21.1348C107.834 21.1348 108.801 21.6186 108.966 22.7401L111.653 22.1739C111.495 20.8599 110.341 18.6389 107.075 18.6389C104.876 18.6389 102.407 19.9803 102.407 22.4369C102.407 25.06 104.513 25.9396 106.756 26.4124C108.999 26.8852 108.702 27.5663 108.702 27.8088C108.702 28.1651 108.306 28.8744 107.122 28.8744C105.938 28.8744 105.14 28.1496 104.865 27.0721L102.094 27.6768C102.578 29.7769 104.063 31.3491 107.086 31.3491C108.897 31.3491 111.77 30.7445 111.77 27.5559C111.77 24.3673 108.461 23.7954 107.482 23.5976Z" fill="white"/>
<path d="M4.01067 13.8162H-0.22998V18.0568H4.01067V13.8162Z" fill="white"/>
<path d="M4.01067 18.2056H-0.22998V22.4128H4.01067V18.2056Z" fill="white"/>
<path d="M4.01067 22.5618H-0.22998V26.6871H4.01067V22.5618Z" fill="white"/>
<path d="M4.01067 26.8357H-0.22998V31.0763H4.01067V26.8357Z" fill="white"/>
<path d="M8.32559 26.8357H4.15936V31.0763H7.66916C7.89084 31.0763 8.11006 31.0544 8.32559 31.0149V26.8357Z" fill="white"/>
<path d="M8.32559 22.5618H4.15936V26.6871H8.32559V22.5618Z" fill="white"/>
<path d="M4.15936 18.2056V22.4128H8.0852L8.32559 22.3201V18.2056H4.15936Z" fill="white"/>
<path d="M4.15936 18.0568H8.32559V13.9199C8.08431 13.8513 7.85567 13.8162 7.65264 13.8162H4.15936V18.0568Z" fill="white"/>
<path d="M8.47447 18.0568H11.363C11.3632 18.0415 11.3636 18.0263 11.3636 18.0109C11.3636 15.7837 9.77599 14.4021 8.47447 13.9663V18.0568Z" fill="white"/>
<path d="M8.47447 18.2056V22.2598C9.72368 21.725 11.2745 20.4831 11.3589 18.2056H8.47447Z" fill="white"/>
<path d="M8.47447 26.6871H11.8449C11.8449 26.6853 11.8449 26.6836 11.8449 26.6819C11.8449 24.2804 10.0845 22.9433 8.72374 22.5618H8.47447V26.6871Z" fill="white"/>
<path d="M8.47447 26.8357V30.9845C10.2792 30.5774 11.768 28.8496 11.8408 26.8357H8.47447Z" fill="white"/>
</g>
</g>
<defs>
<clipPath id="clip0_0_343">
<rect width="160" height="48" fill="white" transform="translate(0 0.25)"/>
</clipPath>
<clipPath id="clip1_0_343">
<rect width="112" height="40.9756" fill="white" transform="translate(-0.22998 3.76221)"/>
</clipPath>
</defs>
</svg>
