<svg width="160" height="48" viewBox="0 0 160 48" fill="none" xmlns="http://www.w3.org/2000/svg">
<g clip-path="url(#clip0_0_373)">
<path d="M31.0987 27.6931C29.0332 27.6931 27.7533 25.8393 27.7533 23.2744C27.7533 20.7349 28.8304 18.843 31.086 18.843C32.5686 18.843 33.5444 19.7953 33.722 21.0523H37.1688C36.9912 19.4905 36.2943 18.1192 35.0779 17.205C34.0894 16.4432 32.7207 15.9734 31.0987 15.9734C26.9422 15.9734 24.243 19.1223 24.243 23.2744C24.243 27.4518 27.0309 30.5118 31.1242 30.5118C33.0882 30.5118 34.5201 29.9659 35.5847 28.9246C36.535 28.0105 37.1688 26.7407 37.2573 25.3568H33.8105C33.6586 26.7154 32.6447 27.6931 31.0987 27.6931Z" fill="white"/>
<path d="M43.6187 19.9478C40.4253 19.9478 38.2837 22.2333 38.2837 25.2426C38.2837 28.2519 40.4253 30.5374 43.6187 30.5374C46.8373 30.5374 48.941 28.2519 48.941 25.2426C48.941 22.2333 46.8373 19.9478 43.6187 19.9478ZM43.606 28.2645C42.2246 28.2645 41.5023 27.0583 41.5023 25.2426C41.5023 23.4268 42.2246 22.1952 43.606 22.1952C44.9873 22.1952 45.7348 23.4268 45.7348 25.2426C45.7224 27.0583 44.9873 28.2645 43.606 28.2645Z" fill="white"/>
<path d="M53.45 18.885C54.1279 18.2058 54.1279 17.1043 53.45 16.425C52.7718 15.7457 51.6727 15.7457 50.9948 16.425C50.3168 17.1043 50.3168 18.2058 50.9948 18.885C51.6727 19.5644 52.7718 19.5644 53.45 18.885Z" fill="white"/>
<path d="M49.4607 22.4618H50.7911V30.2199H53.9593V20.2144H49.4607V22.4618Z" fill="white"/>
<path d="M61.7527 19.9221C60.3717 19.9221 59.4084 20.5062 58.6736 21.5855H58.6102V20.2142H55.5563V30.207H58.7369V24.6837C58.7369 23.452 59.4339 22.5759 60.4857 22.5759C61.5248 22.5759 62.0444 23.2996 62.0444 24.3535V30.207H65.225V23.706C65.225 21.4839 63.9325 19.9221 61.7527 19.9221Z" fill="white"/>
<path d="M72.6765 16.2527H66.7334V30.2071H72.4616C74.2102 30.2071 75.6165 29.7628 76.7064 28.9374C78.2653 27.7438 79.127 25.7758 79.127 23.3125C79.127 19.0461 76.5286 16.2527 72.6765 16.2527ZM72.2075 27.3121H70.1803V19.1477H72.246C74.4125 19.1477 75.6417 20.7857 75.6417 23.3251C75.6291 25.8773 74.4636 27.3121 72.2075 27.3121Z" fill="white"/>
<path d="M88.5413 21.2429C87.6803 20.4684 86.5519 19.9985 85.133 19.9985C82.0915 19.9985 80.0132 22.284 80.0132 25.2679C80.0132 28.2899 82.0411 30.5755 85.336 30.5755C86.603 30.5755 87.6166 30.2453 88.4531 29.6613C89.3274 29.0518 89.9105 28.201 90.1261 27.2995H87.0335C86.7549 27.9217 86.2103 28.2899 85.3738 28.2899C84.0683 28.2899 83.3333 27.4519 83.1303 26.106H90.3032C90.3158 24.0617 89.7327 22.3349 88.5413 21.2429ZM83.1436 24.2014C83.3585 23.0078 83.9794 22.246 85.1834 22.246C86.2103 22.246 86.9579 23.0078 87.072 24.2014H83.1436Z" fill="white"/>
<path d="M96.5633 23.9601C95.2956 23.7315 94.1679 23.63 94.1679 22.9316C94.1679 22.3094 94.7762 22.0174 95.549 22.0174C96.424 22.0174 97.0323 22.2967 97.1464 23.1855H100.073C99.9212 21.2174 98.4008 19.9858 95.5749 19.9858C93.2173 19.9858 91.2664 21.0778 91.2664 23.1855C91.2664 25.5345 93.1165 25.9916 94.8525 26.2837C96.1832 26.5122 97.3865 26.6139 97.3865 27.5153C97.3865 28.1629 96.7789 28.5057 95.8283 28.5057C94.7762 28.5057 94.1175 28.0232 93.9908 27.0201H90.9878C91.0886 29.2295 92.9135 30.5754 95.8409 30.5754C98.4512 30.5754 100.378 29.4454 100.378 27.2614C100.39 24.7092 98.3245 24.2521 96.5633 23.9601Z" fill="white"/>
<path d="M107.854 23.9727L111.365 20.2143H107.702L104.737 23.5918V16.2527H101.607V30.2198H104.737V27.1471L105.7 26.1313L108.095 30.2198H111.77L107.854 23.9727Z" fill="white"/>
<path d="M10.2782 24.2015C10.8102 24.2015 11.2414 23.7694 11.2414 23.2364C11.2414 22.7035 10.8102 22.2715 10.2782 22.2715C9.74639 22.2715 9.31519 22.7035 9.31519 23.2364C9.31519 23.7694 9.74639 24.2015 10.2782 24.2015Z" fill="white"/>
<path d="M17.9578 24.2015C18.4897 24.2015 18.9209 23.7694 18.9209 23.2364C18.9209 22.7035 18.4897 22.2715 17.9578 22.2715C17.4259 22.2715 16.9948 22.7035 16.9948 23.2364C16.9948 23.7694 17.4259 24.2015 17.9578 24.2015Z" fill="white"/>
<path d="M17.9578 31.9086C18.4897 31.9086 18.9209 31.4765 18.9209 30.9435C18.9209 30.4106 18.4897 29.9785 17.9578 29.9785C17.4259 29.9785 16.9948 30.4106 16.9948 30.9435C16.9948 31.4765 17.4259 31.9086 17.9578 31.9086Z" fill="white"/>
<path d="M20.7835 15.3512C20.6822 13.9418 19.5543 12.799 18.1477 12.6975C17.248 12.634 16.4369 12.9768 15.8667 13.5608C15.4359 14.0053 14.8529 14.2719 14.232 14.2719H14.0039C13.3703 14.2719 12.7747 14.0053 12.3312 13.5482C11.8116 13.0149 11.0893 12.6975 10.2909 12.6975C9.4926 12.6975 8.77027 13.0276 8.25073 13.5482C7.80721 14.0053 7.21158 14.2719 6.57798 14.2719H6.36255C5.74163 14.2719 5.14602 14.0307 4.71516 13.5863C4.62646 13.4974 4.53774 13.4085 4.44904 13.3323C3.37193 12.4562 1.78788 12.4816 0.748766 13.4085C-0.505786 14.5132 -0.556475 16.4432 0.609368 17.6113C0.622045 17.624 0.634715 17.6367 0.647385 17.6494C1.10359 18.0811 1.34436 18.6907 1.34436 19.3128V19.5286C1.34436 20.1635 1.07824 20.7603 0.622038 21.2047C0.089808 21.7253 -0.226997 22.449 -0.226997 23.249C-0.226997 24.0489 0.102482 24.7727 0.622038 25.2933C1.07824 25.7376 1.34436 26.3344 1.34436 26.9693V27.2613C1.34436 27.8835 1.07824 28.4676 0.634715 28.8993C0.0771374 29.4453 -0.265014 30.2198 -0.226997 31.0705C-0.163636 32.5688 1.0529 33.7751 2.53554 33.8258C3.39727 33.8513 4.17026 33.5084 4.71516 32.9371C5.14602 32.4926 5.72893 32.2133 6.34988 32.2133H6.59065C7.21158 32.2133 7.79454 32.48 8.22539 32.9371C8.79561 33.5338 9.6193 33.8767 10.5191 33.8132C11.9257 33.7116 13.0662 32.5688 13.1675 31.1467C13.2816 29.458 11.9637 28.0613 10.3036 28.0613C9.51794 28.0613 8.79561 28.3787 8.27607 28.8993C7.83255 29.3437 7.23692 29.6104 6.61599 29.6104H6.34988C5.72893 29.6104 5.12068 29.3691 4.67715 28.912C4.66447 28.8993 4.66447 28.8993 4.6518 28.8866C4.1956 28.4421 3.92949 27.8454 3.92949 27.2106V26.9566C3.92949 26.3217 4.1956 25.725 4.6518 25.2805C5.18403 24.7599 5.50086 24.0362 5.50086 23.2362C5.50086 22.4364 5.17136 21.7126 4.6518 21.192C4.1956 20.7476 3.92949 20.1508 3.92949 19.516V19.2874C3.92949 18.6525 4.1956 18.0558 4.63914 17.6113C4.65181 17.5987 4.65181 17.5987 4.66448 17.586C4.67715 17.5732 4.67715 17.5732 4.68982 17.5606C5.13335 17.1161 5.72893 16.8495 6.36255 16.8495H6.59065C7.22425 16.8495 7.81988 17.1161 8.2634 17.5732C8.78294 18.1065 9.50527 18.424 10.3036 18.424C11.102 18.424 11.8243 18.0938 12.3438 17.5732C12.7874 17.1161 13.383 16.8495 14.0166 16.8495H14.2193C14.8529 16.8495 15.4485 17.1161 15.8921 17.5732C16.4116 18.1065 17.1339 18.424 17.9323 18.424C19.5797 18.4367 20.8976 17.04 20.7835 15.3512Z" fill="white"/>
</g>
<defs>
<clipPath id="clip0_0_373">
<rect width="160" height="48" fill="white" transform="translate(0 -0.0300293)"/>
</clipPath>
</defs>
</svg>
