<svg width="160" height="49" viewBox="0 0 160 49" fill="none" xmlns="http://www.w3.org/2000/svg">
<g clip-path="url(#clip0_0_371)">
<path fill-rule="evenodd" clip-rule="evenodd" d="M19.8298 31.0745L28.1153 8.25293H37.0549L28.8421 31.0745C28.624 31.6559 27.9699 32.092 27.3158 32.092H18.5215C19.103 32.0193 19.6117 31.6559 19.8298 31.0745ZM82.8436 32.4553C78.9912 32.4553 76.5928 30.2023 76.5928 26.6409C76.5928 22.9343 78.7732 20.6085 82.3348 20.6085H82.6252C83.0612 20.6085 83.7156 20.6085 84.5148 20.7539V16.2477H87.0588V32.092C87.0588 32.092 84.6604 32.4553 82.8436 32.4553ZM82.8436 22.5708C80.4452 22.5708 79.2093 23.8791 79.2093 26.5683C79.2093 28.9667 80.6628 30.493 82.9156 30.493C83.3524 30.493 83.8604 30.493 84.5148 30.4203V22.7162C84.4708 22.7114 84.4276 22.7065 84.3844 22.7016L84.2708 22.6889L84.2692 22.6887C83.7156 22.6263 83.2236 22.5708 82.8436 22.5708ZM48.4656 32.092L41.7064 20.2451V32.092H39.3807V17.1199H42.6512L49.4105 28.8213V17.1199H51.8089V32.092H48.4656ZM70.0516 32.31C68.8887 32.31 67.7259 32.1646 66.2723 31.8739H66.1269V29.7662L66.3449 29.8389C67.5805 30.1296 68.6707 30.3477 69.7609 30.3477C70.6331 30.3477 72.6681 30.2023 72.6681 28.894C72.6681 27.8038 71.2871 27.5131 70.1243 27.3677H70.0516C69.9516 27.3345 69.8516 27.3164 69.7587 27.2996C69.6488 27.2798 69.5489 27.2617 69.4702 27.2224C67.7985 26.7863 66.0542 26.1322 66.0542 23.9518C66.0542 21.7714 67.7985 20.5358 70.7784 20.5358C72.232 20.5358 73.2495 20.6812 74.049 20.8265L74.4851 20.8993V22.9343L74.2671 22.8616C74.0939 22.8349 73.9158 22.8059 73.7337 22.7761C72.9226 22.6436 72.0322 22.4982 71.1418 22.4982C69.9789 22.4982 68.5253 22.7162 68.5253 23.8064C68.5253 24.6414 69.5911 24.8768 70.83 25.1505L70.9964 25.1873L71.1719 25.2277C73.0227 25.6523 75.1392 26.1378 75.1392 28.6033C75.2119 31.0017 73.3222 32.31 70.0516 32.31ZM94.1084 32.31C91.4924 32.31 89.094 31.8739 89.094 28.5306C89.094 24.8966 92.8004 24.8966 95.0532 24.8966C95.1484 24.8966 95.3964 24.9104 95.6748 24.9261C96.0356 24.9462 96.4476 24.9693 96.6524 24.9693C96.6524 22.9343 96.6524 22.4982 93.6724 22.4982C92.51 22.4982 91.2012 22.7162 90.1116 22.9343L89.8932 23.0069V20.9719H90.0388C91.3468 20.6812 92.6548 20.6085 93.9636 20.6085C96.798 20.6085 99.1964 20.8993 99.1964 24.3879V32.092H99.0508C97.0156 32.31 95.4172 32.31 94.1084 32.31ZM94.9812 26.7137C92.8732 26.7137 91.4924 27.0044 91.4924 28.6033C91.4924 30.4203 93.1636 30.5656 94.7628 30.5656C95.1036 30.5656 95.618 30.5408 96.0452 30.5201C96.3468 30.5056 96.6044 30.493 96.7252 30.493V26.7863C96.5028 26.7863 95.9532 26.7591 95.5268 26.7379C95.258 26.7245 95.0372 26.7137 94.9812 26.7137ZM58.9315 32.31C56.3151 32.31 53.9167 31.8739 53.9167 28.5306C53.9167 24.8966 57.6233 24.8966 59.8764 24.8966C59.9715 24.8966 60.2191 24.9104 60.498 24.9261C60.8581 24.9462 61.2706 24.9693 61.4754 24.9693C61.4754 22.9343 61.4754 22.4982 58.4955 22.4982C57.3326 22.4982 56.0243 22.7162 54.9342 22.9343L54.7161 23.0069V20.9719H54.8615C56.1697 20.6812 57.4779 20.6085 58.7862 20.6085C61.6207 20.6085 64.0191 20.8993 64.0191 24.3879V32.092H63.8738C61.8387 32.31 60.2398 32.31 58.9315 32.31ZM59.8037 26.7137C57.696 26.7137 56.3151 27.0044 56.3151 28.6033C56.3151 30.4203 57.9867 30.5656 59.5857 30.5656C59.9262 30.5656 60.4411 30.5408 60.8678 30.5201C61.1695 30.5056 61.4276 30.493 61.548 30.493V26.7863C61.2716 26.7863 60.703 26.7571 60.2867 26.7357L60.2855 26.7357C60.0458 26.7233 59.8568 26.7137 59.8037 26.7137ZM109.153 37.1796V32.2373C108.208 32.3827 107.628 32.3827 107.264 32.3827C106.246 32.3827 105.156 32.1646 104.284 31.8013C102.394 31.0745 101.232 29.0394 101.232 26.4229C101.232 25.1147 101.522 22.7889 103.63 21.4807C104.72 20.8992 105.956 20.6085 107.845 20.6085C108.149 20.6085 108.515 20.6242 108.908 20.6409C109.36 20.6603 109.849 20.6812 110.316 20.6812L111.77 20.7539V36.0167C111.697 36.0893 109.153 37.1796 109.153 37.1796ZM107.628 22.5708C105.084 22.5708 103.776 23.8791 103.776 26.4229C103.776 29.6935 105.737 30.4203 107.336 30.4203C107.7 30.4203 108.208 30.4203 109.153 30.2749V22.6436C108.427 22.5709 108.064 22.5708 107.628 22.5708ZM17.7946 31.8013C18.3034 31.8013 18.7395 31.5833 19.0302 31.1472C19.0302 31.1162 19.0565 31.0853 19.0923 31.0432C19.1407 30.9863 19.2064 30.909 19.2482 30.7837L22.3007 22.4255L20.4838 17.556C20.1931 16.7564 19.2482 16.3931 18.5214 16.7564C18.2307 16.8292 18.0127 17.0472 17.8673 17.2652C17.8673 17.306 17.8215 17.3698 17.7683 17.4436C17.7269 17.5012 17.6811 17.5649 17.6492 17.6286L14.5967 25.9869L16.4137 30.9291C16.6317 31.4379 17.1405 31.8013 17.7946 31.8013ZM9.58186 16.2477H18.4488C17.7947 16.2477 17.2132 16.6838 16.9952 17.2652L8.7097 40.0868H-0.22998L8.05554 17.2652C8.27362 16.6838 8.9277 16.2477 9.58186 16.2477Z" fill="white"/>
</g>
<defs>
<clipPath id="clip0_0_371">
<rect width="160" height="48" fill="white" transform="translate(0 0.25)"/>
</clipPath>
</defs>
</svg>
