<svg width="160" height="49" viewBox="0 0 160 49" fill="none" xmlns="http://www.w3.org/2000/svg">
<g clip-path="url(#clip0_0_387)">
<mask id="mask0_0_387" style="mask-type:luminance" maskUnits="userSpaceOnUse" x="-1" y="4" width="113" height="40">
<path d="M111.77 4.96997H-0.22998V43.8139H111.77V4.96997Z" fill="white"/>
</mask>
<g mask="url(#mask0_0_387)">
<path d="M10.863 24.1927C10.863 21.3464 12.6388 18.8408 15.8256 18.8408C17.9664 18.8408 19.4017 19.7652 20.2531 21.687L18.5259 22.4169C17.9664 21.1762 17.1149 20.6166 15.8256 20.6166C13.9768 20.6166 12.8821 22.1006 12.8821 24.1927C12.8821 26.2847 13.9768 27.7687 15.8256 27.7687C17.0906 27.7687 17.9664 27.2092 18.5259 25.9686L20.2531 26.6983C19.3773 28.5958 17.9421 29.5202 15.8256 29.5202C12.6388 29.5202 10.863 27.0146 10.863 24.1927Z" fill="white"/>
<path d="M22.1505 24.1927C22.1505 21.3464 23.9264 18.8408 27.0889 18.8408C29.2297 18.8408 30.6649 19.7652 31.5163 21.687L29.7891 22.4169C29.2297 21.1762 28.3782 20.6166 27.0889 20.6166C25.2401 20.6166 24.1454 22.1006 24.1454 24.1927C24.1454 26.2847 25.2401 27.7687 27.0889 27.7687C28.3539 27.7687 29.2297 27.2092 29.7891 25.9686L31.5163 26.6983C30.6649 28.6201 29.2297 29.5445 27.0889 29.5445C23.9508 29.5202 22.1505 27.0146 22.1505 24.1927Z" fill="white"/>
<path d="M33.2192 24.1927C33.2192 21.4438 34.922 18.8408 38.1818 18.8408C41.4659 18.8408 43.0715 21.2978 43.0715 23.8764V24.7035H35.2383C35.3113 26.4794 36.479 27.7687 38.2062 27.7687C39.6414 27.7687 40.6388 27.0389 41.2713 25.8955L42.8769 26.747C41.8552 28.6444 40.2982 29.5202 38.1818 29.5202C34.9707 29.5202 33.2192 27.0146 33.2192 24.1927ZM41.028 23.025C40.7361 21.5654 39.7874 20.5923 38.1818 20.5923C36.6006 20.5923 35.6276 21.614 35.3356 23.025H41.028Z" fill="white"/>
<path d="M46.6719 25.4575V16.7485H43.8743V14.9971H48.6666V25.2872C48.6666 27.0144 49.4208 27.6713 50.6371 27.6713C51.8048 27.6713 52.5589 26.9415 52.8265 25.4332L54.6023 25.7737C54.2374 28.2794 52.7535 29.5201 50.6371 29.5201C48.2531 29.5201 46.6719 28.0605 46.6719 25.4575Z" fill="white"/>
<path d="M56.5242 19.0111H58.5189V20.2761C58.9811 19.5463 60.1001 18.8408 61.4625 18.8408C64.552 18.8408 66.2061 21.0302 66.2061 24.1927C66.2061 27.3552 64.552 29.5202 61.4625 29.5202C60.1732 29.5202 59.0541 28.8877 58.5189 28.1579V33.5341H56.5242V19.0111ZM64.1141 24.1927C64.1141 22.0276 62.995 20.6166 61.2192 20.6166C59.4677 20.6166 58.3487 22.0276 58.3487 24.1927C58.3487 26.3578 59.4677 27.7687 61.2192 27.7687C62.995 27.7687 64.1141 26.3578 64.1141 24.1927Z" fill="white"/>
<path d="M68.4202 24.1927C68.4202 21.3221 70.3417 18.8408 73.5042 18.8408C76.6668 18.8408 78.5882 21.2978 78.5882 24.1927C78.5882 27.0632 76.6668 29.5202 73.5042 29.5202C70.3417 29.5202 68.4202 27.0632 68.4202 24.1927ZM76.6182 24.1927C76.6182 22.3195 75.4989 20.6166 73.5042 20.6166C71.5096 20.6166 70.4148 22.3195 70.4148 24.1927C70.4148 26.0659 71.5335 27.7687 73.5042 27.7687C75.4989 27.7687 76.6182 26.0659 76.6182 24.1927Z" fill="white"/>
<path d="M80.3155 27.6227H83.77V20.7626H80.7777V19.011H85.7892V27.6227H89.414V29.3742H80.3401V27.6227H80.3155ZM83.1375 16.1892C83.1375 15.3378 83.7946 14.6809 84.6459 14.6809C85.4973 14.6809 86.1537 15.3378 86.1537 16.1892C86.1537 17.0406 85.4973 17.6731 84.6459 17.6731C83.7946 17.6488 83.1375 17.0163 83.1375 16.1892Z" fill="white"/>
<path d="M91.8949 19.0111H93.8902V20.8356C94.6437 19.6922 95.9333 18.8408 97.3932 18.8408C99.4364 18.8408 100.555 20.0815 100.555 22.0763V29.3499H98.5605V22.5871C98.5605 21.2248 97.8555 20.6166 96.7847 20.6166C95.2277 20.6166 93.8902 22.3195 93.8902 25.2144V29.3743H91.8949V19.0111Z" fill="white"/>
<path d="M109.994 25.4091C109.751 26.9173 108.997 27.6471 107.805 27.6471C106.588 27.6471 105.834 26.9903 105.834 25.2632V20.787H109.727V19.0112H105.834V16.0676H103.839V25.4578C103.839 28.0607 105.421 29.5203 107.805 29.5203C109.921 29.5203 111.405 28.2796 111.77 25.774L109.994 25.4091Z" fill="white"/>
<path d="M3.24875 30.7366H1.4729V33.5341H3.24875V30.7366Z" fill="white"/>
<path d="M7.26262 30.7366H5.51111V33.5341H7.26262V30.7366Z" fill="white"/>
<path d="M-0.22998 28.9849L3.41902 19.011H5.55977L9.18443 28.9849V29.3498H-0.22998V28.9849ZM2.47028 27.5983H6.50853L4.4894 21.6626L2.47028 27.5983Z" fill="white"/>
</g>
</g>
<defs>
<clipPath id="clip0_0_387">
<rect width="160" height="48" fill="white" transform="translate(0 0.25)"/>
</clipPath>
</defs>
</svg>
