<svg width="113" height="26" viewBox="0 0 113 26" fill="none" xmlns="http://www.w3.org/2000/svg">
<g clip-path="url(#clip0_0_404)">
<path d="M12.1021 1.68604C5.95704 1.68604 0.969971 6.72403 0.969971 12.881C0.969971 19.0322 5.95704 24.0242 12.1021 24.0242C18.2528 24.0242 23.2858 19.0322 23.2858 12.881C23.2858 6.72403 18.2528 1.68604 12.1021 1.68604ZM11.2019 9.04803H10.4281V16.4959H11.2019V16.8804H8.62243V16.4959H9.48226V9.43247L7.37277 17.0124H7.07471L4.87923 9.17421H4.83913V16.496H5.73909V16.8804H3.80728V16.496H4.49517V9.04803H3.80728V8.65774H5.69895L7.50464 15.2049L9.35043 8.65774H11.2019V9.04803ZM18.8547 17.0123C18.2987 17.0123 17.353 16.8402 16.8371 16.496V16.8803H14.2117V16.4959H15.0715L14.5156 14.04H12.578L11.9302 16.4959H12.8359V16.8803L11.2019 16.8804V16.4959H11.5461L13.6556 8.53148H14.2977L16.1492 16.4959L16.8371 16.496L16.8369 14.3843H17.0949C17.221 15.8475 17.8229 16.7082 18.9005 16.7082C19.6285 16.7082 20.2763 16.1516 20.2304 15.0729C20.1444 12.835 16.877 13.6556 16.791 10.8095C16.705 9.22007 17.7827 8.53148 18.7687 8.53148C19.2846 8.53148 20.1044 8.70361 20.5744 9.00204V10.8095H20.2763C20.1444 9.51843 19.5024 8.78969 18.6827 8.78969C18.0808 8.78969 17.4388 9.43238 17.4789 10.3391C17.5248 12.4047 20.8324 11.544 20.9183 14.6425C21.0043 16.3639 20.0584 17.0123 18.8547 17.0123Z" fill="white"/>
<path d="M12.664 13.6555H14.4295L13.6097 10.1208L12.664 13.6555Z" fill="white"/>
<path fill-rule="evenodd" clip-rule="evenodd" d="M28.5345 15.8613H28.0186V16.0737H29.3943V15.8613H28.7523V11.3857L30.3402 16.1195H30.472L32.0197 11.3857H32.0599V15.8613H31.372V16.0737H33.2637V15.8613H32.7077V11.2996H33.2637V11.1274H31.9338L30.8561 14.2662L30.644 15.0408L30.4262 14.312L29.3542 11.1274H28.0186V11.2996H28.5345V15.8613Z" fill="white"/>
<path fill-rule="evenodd" clip-rule="evenodd" d="M33.5216 14.3522C33.5216 15.0407 33.8656 16.1195 34.8974 16.1195C35.975 16.1195 36.2732 15.0407 36.2732 14.3522C36.2732 13.6637 35.975 12.5906 34.8974 12.5906C33.8656 12.5906 33.5216 13.6637 33.5216 14.3522ZM34.2095 14.3522C34.2095 13.6234 34.2095 12.7627 34.8974 12.7627C35.5853 12.7627 35.6311 13.6234 35.6311 14.3522C35.6311 15.0867 35.5853 15.9473 34.8974 15.9473C34.2095 15.9473 34.2095 15.0867 34.2095 14.3522Z" fill="white"/>
<path fill-rule="evenodd" clip-rule="evenodd" d="M36.5309 15.8613V16.0736H38.0786V15.8613H37.6086V14.094C37.6086 13.4513 37.9067 12.8488 38.4226 12.8488C38.8525 12.8488 38.8983 13.1931 38.8983 13.5775V15.8613H38.4685V16.0736H39.9761V15.8613H39.5003V13.5374C39.5003 12.8488 39.2423 12.5906 38.6404 12.5906C38.1646 12.5906 37.8207 12.8488 37.6487 13.3194H37.6086V12.6766H36.5309V12.8488H37.0068V15.8613H36.5309Z" fill="white"/>
<path fill-rule="evenodd" clip-rule="evenodd" d="M42.8535 14.1399C42.8535 13.2332 42.3838 12.5906 41.5639 12.5906C40.7499 12.5906 40.234 13.4054 40.234 14.3522C40.234 15.3449 40.5779 16.1195 41.478 16.1195C42.1659 16.1195 42.5097 15.9015 42.7676 15.0867L42.5955 15.0407C42.4239 15.5169 42.1659 15.9015 41.6958 15.9015C40.9218 15.9015 40.876 15.2588 40.876 14.2661V14.1399H42.8535ZM40.8761 13.9677C40.8761 13.5374 41.0079 12.7627 41.5238 12.7627C42.1255 12.7627 42.1659 13.4513 42.1659 13.9677H40.8761Z" fill="white"/>
<path fill-rule="evenodd" clip-rule="evenodd" d="M43.0256 12.8489H43.5014V15.2588C43.5014 15.6892 43.5414 16.0737 44.1435 16.0737C44.6193 16.0737 44.8315 15.8614 44.9631 15.4711L44.791 15.431C44.7052 15.6433 44.6193 15.8614 44.4015 15.8614C44.1435 15.8614 44.1031 15.6433 44.1031 15.2588V12.8489H44.7452V12.6767H44.1031V11.73H43.5014V12.6767H43.0256V12.8489Z" fill="white"/>
<path fill-rule="evenodd" clip-rule="evenodd" d="M46.7232 15.603C46.8548 16.0334 47.067 16.0736 47.3707 16.0736H47.8407V15.8613C47.497 15.8613 47.3707 15.9473 47.3707 15.4309V13.5775C47.3707 13.021 47.1528 12.5906 46.2531 12.5906C45.7773 12.5906 45.1352 12.7168 45.1352 13.4054C45.1352 13.6234 45.2615 13.6637 45.3931 13.6637C45.5652 13.6637 45.6911 13.5374 45.6911 13.2792C45.6911 12.8488 45.949 12.7627 46.2531 12.7627C46.6369 12.7627 46.769 13.0611 46.769 13.5374V13.8357C46.0352 14.094 44.9631 14.094 44.9631 15.1268C44.9631 15.7752 45.1752 16.1195 45.7773 16.1195C46.1669 16.1195 46.511 16.0334 46.7232 15.603ZM46.769 14.0079V14.8284C46.769 15.2989 46.5511 15.9015 46.0352 15.9015C45.7369 15.9015 45.651 15.5571 45.651 15.1268C45.651 14.4382 45.9089 14.312 46.2531 14.18L46.769 14.0079Z" fill="white"/>
<path fill-rule="evenodd" clip-rule="evenodd" d="M48.4028 15.8613H47.8869V16.0736H49.4746V15.8613H49.0045V14.312C49.0045 13.5775 49.3025 12.8488 49.6466 12.8488C49.7325 12.8488 49.7783 12.9348 49.7783 13.021V13.3652C49.7783 13.5775 49.9046 13.6234 50.0767 13.6234C50.2945 13.6234 50.3804 13.4513 50.3804 13.1931C50.3804 12.8029 50.1625 12.5906 49.8183 12.5906C49.3487 12.5906 49.1308 13.021 49.0045 13.4054V12.6766H47.8869V12.8488H48.4028V15.8613Z" fill="white"/>
<path fill-rule="evenodd" clip-rule="evenodd" d="M51.67 16.4639C51.4979 17.1065 51.2805 17.3647 51.1084 17.3647C50.9363 17.3647 50.8962 17.1926 50.8962 17.0204C50.8962 16.8483 50.8505 16.6761 50.6383 16.6761C50.4662 16.6761 50.3804 16.8081 50.3804 17.0663C50.3804 17.3246 50.5925 17.6229 50.9363 17.6229C51.7101 17.6229 51.7963 16.5499 51.968 16.0737L53.0459 12.803H53.4755V12.6768H52.2721V12.803H52.828L52.2259 14.6965C52.1401 14.9548 52.1 15.213 52.1 15.213H52.0542C52.0542 15.213 52.0543 14.9548 51.968 14.6965L51.3663 12.803H51.9279V12.6768H50.2484V12.803H50.6784L51.7963 16.0737L51.67 16.4639Z" fill="white"/>
<path fill-rule="evenodd" clip-rule="evenodd" d="M54.6793 15.8613H54.2092V16.0735H55.5393V15.8613H54.8972L55.3672 14.3119H56.4852L56.9148 15.8613H56.3131V16.0735H58.2048V15.8613H57.6485L56.2273 11.0413H56.0552L54.6793 15.8613ZM56.3989 14.0939H55.3672L55.7572 12.8488L55.8831 12.2463H55.9289L56.0552 12.8488L56.3989 14.0939Z" fill="white"/>
<path fill-rule="evenodd" clip-rule="evenodd" d="M60.1419 16.0734H61.2603V15.8612H60.744V12.6765H59.6265V12.8486H60.1419V14.6561C60.1419 15.2987 59.884 15.9013 59.3228 15.9013C58.9385 15.9013 58.8523 15.5168 58.8523 15.1267V12.6765H57.8206V12.8486H58.2907V15.1726C58.2907 15.8612 58.5486 16.1193 59.1507 16.1193C59.6265 16.1193 59.9698 15.8612 60.1419 15.3849V16.0734Z" fill="white"/>
<path fill-rule="evenodd" clip-rule="evenodd" d="M61.3461 12.8489H61.8162V15.2589C61.8162 15.6892 61.862 16.0737 62.5037 16.0737C62.9338 16.0737 63.1516 15.8614 63.2779 15.4712L63.1516 15.431C63.02 15.6434 62.9338 15.8614 62.7216 15.8614C62.4637 15.8614 62.4179 15.6434 62.4179 15.2589V12.8489H63.0658V12.6768H62.4179V11.73H61.8162V12.6768H61.3461V12.8489Z" fill="white"/>
<path fill-rule="evenodd" clip-rule="evenodd" d="M63.2379 15.8613V16.0737H64.8255V15.8613H64.3554V14.094C64.3554 13.4514 64.6134 12.8489 65.1697 12.8489C65.5997 12.8489 65.6455 13.1931 65.6455 13.5775V15.8613H65.1697V16.0737H66.7172V15.8613H66.2472V13.5374C66.2472 12.8489 65.9431 12.5906 65.3875 12.5906C64.9118 12.5906 64.5275 12.8489 64.3554 13.3194V11.1274H63.2379V11.2996H63.7537V15.8613H63.2379Z" fill="white"/>
<path fill-rule="evenodd" clip-rule="evenodd" d="M66.9351 14.3522C66.9351 15.0407 67.2793 16.1195 68.3106 16.1195C69.3427 16.1195 69.6869 15.0407 69.6869 14.3522C69.6869 13.6637 69.3427 12.5906 68.3106 12.5906C67.2793 12.5906 66.9351 13.6637 66.9351 14.3522ZM67.6231 14.3522C67.6231 13.6234 67.6231 12.7627 68.3106 12.7627C68.9989 12.7627 68.9989 13.6234 68.9989 14.3522C68.9989 15.0867 68.9989 15.9473 68.3106 15.9473C67.6231 15.9473 67.6231 15.0867 67.6231 14.3522Z" fill="white"/>
<path fill-rule="evenodd" clip-rule="evenodd" d="M70.4202 15.8613H69.9043V16.0736H71.5377V15.8613H71.0223V14.312C71.0223 13.5775 71.366 12.8488 71.664 12.8488C71.7499 12.8488 71.8361 12.9348 71.8361 13.021V13.3652C71.8361 13.5775 71.9677 13.6234 72.094 13.6234C72.3119 13.6234 72.3982 13.4513 72.3982 13.1931C72.3982 12.8029 72.1803 12.5906 71.8361 12.5906C71.4061 12.5906 71.1486 13.021 71.0223 13.4054V12.6766H69.9043V12.8488H70.4202V15.8613Z" fill="white"/>
<path fill-rule="evenodd" clip-rule="evenodd" d="M72.9541 15.8612H72.4382V16.0735H74.0716V15.8612H73.5558V12.6766H72.4382V12.8487H72.9541V15.8612ZM72.914 11.5979C72.914 11.8159 73.0861 11.988 73.2582 11.988C73.4695 11.988 73.6416 11.8159 73.6416 11.5979C73.6416 11.3396 73.4695 11.1675 73.2582 11.1675C73.0403 11.1675 72.914 11.3396 72.914 11.5979Z" fill="white"/>
<path fill-rule="evenodd" clip-rule="evenodd" d="M74.1579 12.8489H74.6337V15.2589C74.6337 15.6892 74.6738 16.0737 75.3212 16.0737C75.7512 16.0737 75.9634 15.8614 76.0954 15.4712L75.9233 15.431C75.8371 15.6434 75.7512 15.8614 75.5334 15.8614C75.2754 15.8614 75.235 15.6434 75.235 15.2589V12.8489H75.8775V12.6768H75.235V11.73H74.6337V12.6768H74.1579V12.8489Z" fill="white"/>
<path fill-rule="evenodd" clip-rule="evenodd" d="M77.0813 16.4636C76.955 17.1063 76.6975 17.3645 76.5254 17.3645C76.3533 17.3645 76.3533 17.1924 76.3533 17.0202C76.3533 16.8481 76.3076 16.6759 76.0954 16.6759C75.9233 16.6759 75.7917 16.8079 75.7917 17.0661C75.7917 17.3243 76.0096 17.6227 76.3533 17.6227C77.1271 17.6227 77.213 16.5497 77.3851 16.0734L78.4572 12.8028H78.8868V12.6765H77.7292V12.8028H78.2851L77.683 14.6963C77.5972 14.9545 77.5114 15.2127 77.5114 15.2127C77.5114 15.2127 77.4709 14.9545 77.3851 14.6963L76.783 12.8028H77.3393V12.6765H75.6654V12.8028H76.1355L77.213 16.0734L77.0813 16.4636Z" fill="white"/>
<path fill-rule="evenodd" clip-rule="evenodd" d="M80.1985 14.3578C80.1985 15.0464 80.5427 16.1251 81.574 16.1251C82.6061 16.1251 82.956 15.0464 82.956 14.3578C82.956 13.6693 82.6061 12.5962 81.574 12.5962C80.5427 12.5962 80.1985 13.6693 80.1985 14.3578ZM80.8869 14.3578C80.8869 13.6291 80.8865 12.7684 81.574 12.7684C82.2623 12.7684 82.2623 13.6291 82.2623 14.3578C82.2623 15.0923 82.2623 15.953 81.574 15.953C80.8865 15.953 80.8869 15.0923 80.8869 14.3578Z" fill="white"/>
<path fill-rule="evenodd" clip-rule="evenodd" d="M83.684 12.8545V15.867H83.1686V16.0793H84.7619V15.867H84.2861V12.8545H84.8478V12.6823H84.2861V11.9077C84.2861 11.4774 84.3319 11.2135 84.6299 11.2135C84.8882 11.2135 84.9741 11.3454 84.9741 11.6495C84.9741 11.9077 85.0599 11.9938 85.2316 11.9938C85.4037 11.9938 85.4895 11.9077 85.4895 11.6897C85.4895 11.1733 84.9741 11.0413 84.6299 11.0413C84.1598 11.0413 83.684 11.2135 83.684 11.9938V12.6823H83.1686V12.8545H83.684Z" fill="white"/>
<path fill-rule="evenodd" clip-rule="evenodd" d="M86.7395 15.8211C87.1233 16.0391 87.725 16.1252 88.115 16.1252C88.9288 16.1252 89.5767 15.7809 89.5767 14.7022C89.5767 12.8545 87.295 13.371 87.295 12.1201C87.295 11.5635 87.7712 11.2135 88.1554 11.2135C88.7166 11.2135 89.1467 11.6036 89.2325 12.4242H89.4046L89.3588 11.2996C89.0608 11.1273 88.5854 11.0413 88.2413 11.0413C87.5533 11.0413 86.8249 11.4315 86.8249 12.3782C86.8249 14.0996 89.1009 13.6292 89.1009 14.9603C89.1009 15.649 88.6312 15.9531 88.1554 15.9531C87.3812 15.9531 86.9512 15.4366 86.865 14.5759H86.6937L86.7395 15.8211Z" fill="white"/>
<path fill-rule="evenodd" clip-rule="evenodd" d="M90.3909 15.867H89.8747V16.0793H91.4684V15.867H90.9922V12.6824H89.8747V12.8546H90.3909V15.867ZM90.3047 11.6037C90.3047 11.8218 90.4768 11.9938 90.6942 11.9938C90.8663 11.9938 91.0384 11.8218 91.0384 11.6037C91.0384 11.3454 90.8663 11.1733 90.6942 11.1733C90.4768 11.1733 90.3047 11.2996 90.3047 11.6037Z" fill="white"/>
<path fill-rule="evenodd" clip-rule="evenodd" d="M91.5543 15.8669V16.0792H93.1018V15.8669H92.6718V14.0996C92.6718 13.4569 92.9297 12.8544 93.4861 12.8544C93.876 12.8544 93.9623 13.1987 93.9623 13.5832V15.8669H93.4861V16.0792H95.0336V15.8669H94.5635V13.543C94.5635 12.8544 94.2602 12.5962 93.7039 12.5962C93.1881 12.5962 92.8439 12.8544 92.6718 13.325V12.6823H91.5543V12.8544H92.0705V15.8669H91.5543Z" fill="white"/>
<path fill-rule="evenodd" clip-rule="evenodd" d="M96.4553 12.5962C95.9799 12.5962 95.5098 12.9807 95.5098 13.6291C95.5098 13.9275 95.5499 14.0996 95.6819 14.3578C95.4236 14.4898 95.1656 14.748 95.1656 15.1325C95.1656 15.5226 95.4236 15.8669 95.7678 15.953C95.464 15.9931 95.2057 16.2112 95.2057 16.5957C95.2057 17.4162 96.0653 17.5883 96.5816 17.5883C97.1894 17.5883 97.9628 17.2842 97.9628 16.3374C97.9628 15.5628 97.5332 15.2644 96.9715 15.2644H95.9398C95.5957 15.2644 95.4236 15.2185 95.4236 14.9603C95.4236 14.748 95.6819 14.5299 95.8536 14.5299C96.0253 14.6619 96.2832 14.748 96.5411 14.748C97.0574 14.748 97.5332 14.3176 97.5332 13.6291C97.5332 13.4111 97.4874 13.2389 97.3611 13.0266C97.3611 12.9405 97.4874 12.8544 97.5332 12.8544C97.7453 12.8544 97.5732 13.2848 97.8774 13.2848C98.0028 13.2848 98.0891 13.1528 98.0891 12.9807C98.0891 12.7225 97.8774 12.5962 97.7053 12.5962C97.4874 12.5962 97.3611 12.7225 97.2753 12.8544C97.0574 12.6364 96.7533 12.5962 96.4553 12.5962ZM96.0653 13.5832C96.0653 13.1528 96.1111 12.7684 96.5411 12.7684C96.9715 12.7684 96.9715 13.2848 96.9715 13.7151C96.9715 14.0595 96.9254 14.5758 96.4953 14.5758C96.0653 14.5758 96.0653 13.9734 96.0653 13.5832ZM96.8853 15.953C97.4473 15.953 97.7453 16.039 97.7453 16.5096C97.7453 17.026 97.2753 17.4162 96.6274 17.4162C96.0253 17.4162 95.6357 17.1981 95.6357 16.6416C95.6357 15.9931 96.0653 15.953 96.8853 15.953Z" fill="white"/>
<path fill-rule="evenodd" clip-rule="evenodd" d="M100.026 15.6087C100.153 16.039 100.37 16.0792 100.668 16.0792H101.145V15.8669C100.8 15.8669 100.668 15.953 100.668 15.4366V13.5832C100.668 13.0266 100.456 12.5962 99.5508 12.5962C99.0807 12.5962 98.4329 12.7225 98.4329 13.4111C98.4329 13.6291 98.5649 13.6693 98.6908 13.6693C98.8629 13.6693 98.9949 13.543 98.9949 13.2848C98.9949 12.8544 99.2528 12.7684 99.5508 12.7684C99.9404 12.7684 100.067 13.0668 100.067 13.543V13.8414C99.3387 14.0996 98.2608 14.0996 98.2608 15.1325C98.2608 15.7808 98.4786 16.1251 99.0807 16.1251C99.465 16.1251 99.8092 16.039 100.026 15.6087ZM100.067 14.0135V14.8341C100.067 15.3046 99.8549 15.9071 99.3387 15.9071C98.9949 15.9071 98.9487 15.5628 98.9487 15.1325C98.9487 14.4439 99.2071 14.3176 99.5508 14.1857L100.067 14.0135Z" fill="white"/>
<path fill-rule="evenodd" clip-rule="evenodd" d="M101.185 17.5883H102.818V17.4162H102.302V15.6489C102.434 15.9932 102.732 16.1251 103.076 16.1251C103.982 16.1251 104.366 15.3046 104.366 14.3578C104.366 13.1127 103.81 12.5962 103.162 12.5962C102.778 12.5962 102.52 12.7225 102.302 13.1528V12.6823H101.23V12.8544H101.701V17.4162H101.185V17.5883ZM102.302 14.0595C102.302 13.0266 102.732 12.8085 102.991 12.8085C103.552 12.8085 103.724 13.4971 103.724 14.3578C103.724 15.3505 103.466 15.9071 102.991 15.9071C102.388 15.9071 102.302 15.2185 102.302 14.616V14.0595Z" fill="white"/>
<path fill-rule="evenodd" clip-rule="evenodd" d="M104.796 14.3578C104.796 15.0464 105.1 16.1251 106.171 16.1251C107.204 16.1251 107.547 15.0464 107.547 14.3578C107.547 13.6693 107.204 12.5962 106.171 12.5962C105.1 12.5962 104.796 13.6693 104.796 14.3578ZM105.484 14.3578C105.484 13.6291 105.484 12.7684 106.171 12.7684C106.859 12.7684 106.859 13.6291 106.859 14.3578C106.859 15.0923 106.859 15.953 106.171 15.953C105.484 15.953 105.484 15.0923 105.484 14.3578Z" fill="white"/>
<path fill-rule="evenodd" clip-rule="evenodd" d="M108.281 15.8669H107.765V16.0792H109.353V15.8669H108.883V14.3176C108.883 13.5832 109.227 12.8544 109.525 12.8544C109.611 12.8544 109.657 12.9405 109.657 13.0266V13.3709C109.657 13.5832 109.783 13.6291 109.955 13.6291C110.173 13.6291 110.259 13.4569 110.259 13.1987C110.259 12.8085 110.041 12.5962 109.697 12.5962C109.267 12.5962 109.01 13.0266 108.883 13.4111V12.6823H107.765V12.8544H108.281V15.8669Z" fill="white"/>
<path fill-rule="evenodd" clip-rule="evenodd" d="M112.97 14.1455C112.97 13.2389 112.54 12.5962 111.72 12.5962C110.861 12.5962 110.345 13.4111 110.345 14.3578C110.345 15.3505 110.689 16.1251 111.635 16.1251C112.282 16.1251 112.627 15.9071 112.884 15.0923L112.712 15.0464C112.581 15.5226 112.322 15.9071 111.807 15.9071C111.032 15.9071 111.032 15.2644 111.032 14.2717V14.1455H112.97ZM111.032 13.9734C111.032 13.543 111.159 12.7684 111.635 12.7684C112.237 12.7684 112.282 13.4569 112.282 13.9734H111.032Z" fill="white"/>
</g>
<defs>
<clipPath id="clip0_0_404">
<rect width="112" height="24.5255" fill="white" transform="translate(0.969971 0.987305)"/>
</clipPath>
</defs>
</svg>
