<svg width="160" height="49" viewBox="0 0 160 49" fill="none" xmlns="http://www.w3.org/2000/svg">
<g clip-path="url(#clip0_0_368)">
<path d="M72.9909 28.4097H74.9033V24.9399L78.2154 19.7351H76.0467L73.957 23.2049L71.9263 19.7548H69.6986L73.0107 24.999V28.4097H72.9909ZM61.6746 28.4097H63.5672V22.9092L67.7468 28.4097H69.3634V19.7548H67.4905V25.0779L63.4292 19.7548H61.6746V28.4097ZM55.4644 24.7821L56.6079 21.9826L57.7514 24.7821H55.4644ZM52.0538 28.4097H54.0055L54.7941 26.4579H58.4414L59.23 28.4097H61.2015L57.5345 19.6957H55.7602L52.0538 28.4097ZM48.1897 24.1118V21.5095H49.6486C50.5949 21.5095 51.1863 21.9629 51.1863 22.8107V22.8304C51.1863 23.5795 50.6343 24.1315 49.688 24.1315H48.1897V24.1118ZM46.2773 28.4097H48.1897V25.8073H49.6288C51.5609 25.8073 53.1184 24.7821 53.1184 22.7712C53.1184 20.9969 51.8763 19.7746 49.8063 19.7746H46.297V28.4294L46.2773 28.4097ZM36.4199 28.4097H38.2928V22.7712L40.698 26.4382H40.7572L43.1821 22.7712V28.4097H45.0747V19.7548H43.0244L40.7572 23.4218L38.49 19.7548H36.4396V28.4097H36.4199ZM31.0378 26.793C29.5 26.793 28.4157 25.5707 28.4157 24.0921V24.0527C28.4157 22.5741 29.4803 21.3715 30.9983 21.3715C32.5361 21.3715 33.6204 22.5938 33.6204 24.0724V24.1118C33.6204 25.5904 32.5558 26.793 31.0378 26.793ZM30.9983 28.5674C31.5975 28.5859 32.1944 28.4838 32.7533 28.2672C33.3123 28.0506 33.8221 27.7238 34.2524 27.3064C34.6827 26.889 35.0247 26.3894 35.2582 25.8372C35.4917 25.2851 35.6119 24.6916 35.6116 24.0921V24.0527C35.6116 21.608 33.6993 19.6168 31.0378 19.6168C28.3763 19.6168 26.4245 21.6278 26.4245 24.0921C26.4245 26.5565 28.3368 28.5477 30.9983 28.5477M22.8561 28.5477C24.5319 28.5477 25.5176 27.9562 26.4048 27.0099L25.1824 25.7876C24.5121 26.3988 23.901 26.793 22.9152 26.793C21.4366 26.793 20.4115 25.5707 20.4115 24.0921V24.0527C20.4115 22.5741 21.4563 21.3715 22.9152 21.3715C23.7827 21.3715 24.453 21.746 25.1233 22.3572L26.3456 20.9575C25.5373 20.1689 24.5713 19.6168 22.935 19.6168C22.341 19.6008 21.75 19.7052 21.1976 19.9239C20.6452 20.1426 20.1428 20.471 19.7209 20.8893C19.2989 21.3076 18.9661 21.807 18.7426 22.3575C18.519 22.908 18.4094 23.4981 18.4203 24.0921C18.4203 26.5959 20.3129 28.5477 22.8561 28.5477ZM7.93196 27.4436V19.952H5.98019L3.83128 23.343L1.68236 19.952H-0.22998V29.218L-0.170836 29.908C0.322035 29.4546 0.893765 29.08 1.52464 28.7645V22.7712L3.81156 26.1622H3.85099L6.15763 22.7318V27.8576C6.7885 27.8774 7.37995 27.9759 7.93196 28.1139M16.3305 19.952H14.2801L12.2889 23.1655L10.3175 19.952H8.2474L11.4018 24.8018V28.3308H13.1761V24.7821L16.3305 19.952ZM80.0883 19.6168V28.3308H105.836V19.6168H80.0883Z" fill="white"/>
<path d="M100.71 24.4471L101.163 23.3431L101.617 24.4471H100.71ZM99.3694 25.8863H100.119L100.434 25.1174H101.873L102.189 25.8863H102.977L101.499 22.4559H100.809L99.3497 25.8863H99.3694ZM96.2151 25.8863H96.9445V24.8414L97.3388 24.4471L98.4034 25.8863H99.3103L97.8514 23.9148L99.2314 22.4756H98.3443L96.9642 23.9739V22.4756H96.2151V25.8863ZM94.3027 25.9257C95.0322 25.9257 95.5447 25.5511 95.5447 24.8808C95.5447 24.2894 95.1504 24.0331 94.4604 23.8359C93.869 23.6979 93.731 23.6191 93.731 23.4022C93.731 23.205 93.8887 23.0868 94.1647 23.0868C94.4878 23.1048 94.7975 23.2218 95.0519 23.4219L95.4462 22.8699C95.0888 22.5831 94.6426 22.4297 94.1844 22.4362C93.4944 22.4362 93.0015 22.8305 93.0015 23.4613C93.0015 24.1316 93.4353 24.3288 94.1253 24.5062C94.6773 24.6442 94.7956 24.7428 94.7956 24.94C94.7956 25.1371 94.6182 25.2751 94.3224 25.2751C93.9281 25.2751 93.593 25.1174 93.2973 24.8611L92.8635 25.3934C93.2624 25.7403 93.7741 25.9296 94.3027 25.9257ZM90.0837 25.8863H92.5284V25.1962H90.8329V22.4756H90.064V25.8863H90.0837ZM87.5997 25.2554C87.0082 25.2554 86.5745 24.7625 86.5745 24.1711C86.5745 23.5796 86.9885 23.1065 87.5997 23.1065C88.1911 23.1065 88.6248 23.5993 88.6248 24.1711C88.6248 24.7625 88.2108 25.2554 87.5997 25.2554ZM87.5997 25.9454C87.836 25.9507 88.071 25.9086 88.2908 25.8218C88.5106 25.735 88.7109 25.6052 88.8799 25.4399C89.0488 25.2746 89.1831 25.0772 89.2747 24.8593C89.3663 24.6414 89.4135 24.4074 89.4134 24.1711C89.4134 23.1853 88.6643 22.4165 87.5997 22.4165C87.3634 22.4112 87.1284 22.4532 86.9085 22.54C86.6887 22.6268 86.4884 22.7567 86.3195 22.922C86.1505 23.0873 86.0163 23.2847 85.9246 23.5025C85.833 23.7204 85.7858 23.9544 85.7859 24.1908C85.7859 25.1568 86.5548 25.9454 87.5997 25.9454ZM83.4596 24.1908V23.1656H84.0313C84.4059 23.1656 84.6227 23.3628 84.6227 23.6782C84.6227 23.9936 84.4256 24.2105 84.0313 24.2105H83.4398L83.4596 24.1908ZM82.6907 25.8863H83.4398V24.8611H84.0116C84.7804 24.8611 85.3916 24.4668 85.3916 23.6782V23.6585C85.3916 22.9488 84.8987 22.4756 84.0904 22.4756H82.7104V25.8863H82.6907Z" fill="#333333"/>
</g>
<defs>
<clipPath id="clip0_0_368">
<rect width="160" height="48" fill="white" transform="translate(0 0.25)"/>
</clipPath>
</defs>
</svg>
